# xmcd
#
# Track frame offsets: 
#        150
#        17415
#        32973
#        47925
#        62965
#        78346
#        88634
#        101140
#        114742
#        128787
#        142790
#
# Disc length: 2090 seconds
#
# Revision: 0
# Processed by: cddbd v1.5.2PL0 Copyright (c) Steve Scherf et al.
# Submitted via: ExactAudioCopy v0.95b4
#
DISCID=9108280b
DTITLE=Waylon and Willie - WW II
DYEAR=1982
DGENRE=Outlaw Country
TTITLE0=Mr. Shuck and Jive
TTITLE1=(Sittin' On) The Dock of the Bay
TTITLE2=Write Your Own Songs
TTITLE3=Lady in the Harbor
TTITLE4=May I Borrow Some Sugar From You
TTITLE5=Last Cowboy Song
TTITLE6=Heroes
TTITLE7=Roman Candles
TTITLE8=The Teddy Bear Song
TTITLE9=The Year That Clayton Delaney Died
TTITLE10=The Old Mother's Locket Trick
EXTD=
EXTT0=
EXTT1=
EXTT2=
EXTT3=
EXTT4=
EXTT5=
EXTT6=
EXTT7=
EXTT8=
EXTT9=
EXTT10=
PLAYORDER=
